<?xml version="1.0" standalone="no"?>
<!DOCTYPE svg PUBLIC "-//W3C//DTD SVG 20010904//EN"
 "http://www.w3.org/TR/2001/REC-SVG-20010904/DTD/svg10.dtd">
<svg version="1.0" xmlns="http://www.w3.org/2000/svg"
 width="1119.000000pt" height="1080.000000pt" viewBox="0 0 1119.000000 1080.000000"
 preserveAspectRatio="xMidYMid meet">

<g transform="translate(0.000000,1080.000000) scale(0.100000,-0.100000)"
fill="#000000" stroke="none">
<path d="M5360 10789 c-724 -80 -1351 -463 -1738 -1061 -250 -387 -372 -821
-372 -1324 0 -356 107 -691 308 -962 92 -123 307 -331 2797 -2700 88 -84 179
-161 201 -172 180 -88 384 40 384 241 0 120 17 101 -725 806 -1688 1604 -2171
2071 -2241 2169 -62 87 -120 214 -150 329 -20 78 -27 133 -31 250 -12 326 43
605 172 873 247 515 703 870 1275 994 92 19 134 22 340 23 206 0 249 -3 348
-23 428 -87 809 -316 1072 -647 111 -140 193 -282 269 -466 56 -135 135 -193
261 -194 65 0 82 4 129 30 95 53 151 158 138 264 -7 54 -78 230 -142 346 -357
655 -986 1095 -1730 1210 -122 19 -449 27 -565 14z"/>
<path d="M1143 8216 c-63 -20 -110 -53 -141 -99 -73 -107 -981 -1677 -991
-1712 -26 -93 -1 -186 68 -255 85 -85 11 -80 1147 -80 l1002 0 63 33 c107 55
164 171 139 283 -13 60 -498 898 -549 949 -51 52 -109 75 -188 75 -138 -1
-232 -78 -263 -216 -19 -83 -2 -128 139 -369 l129 -220 -476 -3 c-261 -1 -477
-1 -479 1 -2 2 139 248 313 545 l316 542 537 0 c589 0 598 1 679 59 58 43 93
108 99 184 10 117 -36 204 -137 261 l-55 31 -655 2 c-520 2 -664 -1 -697 -11z"/>
<path d="M7935 8215 c-223 -42 -386 -157 -474 -335 -76 -157 -71 82 -71 -2931
0 -1828 -3 -2741 -11 -2810 -41 -411 -223 -792 -514 -1084 -310 -310 -727
-499 -1153 -523 -513 -29 -956 126 -1342 468 -230 205 -431 533 -514 841 -64
237 -59 72 -65 2214 l-6 1950 -22 40 c-50 92 -137 144 -244 145 -108 0 -186
-49 -242 -154 l-22 -41 -3 -1845 c-3 -1914 -1 -2031 38 -2248 177 -978 969
-1740 1961 -1886 146 -22 532 -22 678 0 934 138 1695 820 1926 1728 75 298 69
30 72 3106 2 1515 5 2765 8 2778 3 12 20 31 38 42 31 19 55 20 934 20 l901 0
316 -541 c174 -297 316 -543 316 -545 0 -2 -214 -4 -475 -4 -292 0 -475 4
-475 9 0 6 55 104 122 218 129 220 153 280 142 353 -19 137 -126 229 -267 230
-80 0 -136 -23 -189 -78 -51 -52 -529 -874 -545 -937 -10 -36 -11 -64 -3 -102
17 -95 60 -152 144 -193 l61 -30 1021 2 1021 3 48 30 c101 62 150 171 127 281
-8 42 -117 235 -497 886 -268 458 -497 847 -511 865 -13 17 -50 44 -81 60
l-58 28 -1010 2 c-797 1 -1025 -1 -1080 -12z"/>
<path d="M4525 5451 c-85 -22 -160 -84 -193 -160 -24 -56 -21 -157 7 -213 17
-37 251 -275 1021 -1040 l998 -993 46 -95 c83 -171 111 -334 103 -595 -6 -197
-30 -312 -92 -436 -70 -140 -187 -275 -308 -358 -72 -49 -201 -107 -297 -132
-108 -29 -317 -32 -422 -6 -289 71 -515 254 -635 514 -46 101 -72 207 -82 338
-7 88 -14 121 -34 162 -82 161 -298 193 -429 62 -66 -66 -83 -128 -74 -267 41
-673 542 -1230 1211 -1344 101 -17 147 -19 290 -15 185 6 261 19 422 72 391
130 720 436 878 820 65 156 95 296 108 503 27 436 -53 783 -246 1072 -55 82
-98 126 -1298 1318 -579 576 -766 756 -800 771 -52 23 -131 33 -174 22z"/>
</g>
</svg>
